<?xml version="1.0" encoding="UTF-8" standalone="no"?>
<svg
   version="1.1"
   width="1000"
   height="1000"
   style="clip-rule:evenodd;fill-rule:evenodd;image-rendering:optimizeQuality;shape-rendering:geometricPrecision;text-rendering:geometricPrecision"
   id="svg8"
   xmlns="http://www.w3.org/2000/svg"
   xmlns:svg="http://www.w3.org/2000/svg">
  <defs
     id="defs8" />
  <g
     id="g1"
     style="fill:#333333">
    <path
       style="opacity:1;fill:#333333"
       fill="#241c1c"
       d="m 216.5,-0.5 c 188,0 376,0 564,0 108.749,18.9077 179.249,81.2411 211.5,187 2.975,12.379 5.475,24.712 7.5,37 0,183.333 0,366.667 0,550 -15.364,104.529 -72.364,175.696 -171,213.5 -17.836,5.462 -35.836,9.628 -54,12.5 -183.333,0 -366.667,0 -550,0 C 119.97,984.135 48.803,927.135 11,828.5 6.03444,812.974 2.20111,797.307 -0.5,781.5 c 0,-188.333 0,-376.667 0,-565 C 16.9158,115.58 73.5825,47.0798 169.5,11 c 15.525,-4.96518 31.191,-8.79851 47,-11.5 z"
       id="path1" />
  </g>
  <g
     id="g5">
    <path
       style="opacity:1;fill:#37c837"
       fill="#e37ffd"
       d="m 762.5,299.5 c 17.687,-0.211 35.354,0.289 53,1.5 16.833,16.167 33.667,32.333 50.5,48.5 24.325,81.637 48.492,163.303 72.5,245 -0.333,1.333 -0.667,2.667 -1,4 -54.653,-54.153 -109.153,-108.486 -163.5,-163 -8.293,-42.445 -14.626,-85.112 -19,-128 2.028,-3.192 4.528,-5.859 7.5,-8 z"
       id="path5" />
  </g>
  <g
     id="g4"
     style="fill:#ff9955">
    <path
       style="opacity:1;fill:#ff9955"
       fill="#e37ffd"
       d="m 183.5,299.5 c 15.7,-0.341 31.366,0.159 47,1.5 2.833,1.5 5,3.667 6.5,6.5 -3.008,42.773 -7.342,85.44 -13,128 -52.957,55.124 -106.791,109.458 -161.5,163 -1.1517,-2.606 -1.3184,-5.273 -0.5,-8 23.9885,-80.636 47.988,-161.302 72,-242 17.006,-15.84 33.506,-32.173 49.5,-49 z"
       id="path4" />
  </g>
  <g
     id="g7"
     style="fill:#cd87de">
    <path
       style="opacity:1;fill:#cd87de"
       fill="#e47ffe"
       d="m 237.5,473.5 c 174.334,-0.167 348.667,0 523,0.5 1.746,0.471 3.413,1.138 5,2 17.562,16.893 34.395,34.393 50.5,52.5 0.667,113 0.667,226 0,339 -1.986,9.318 -7.486,15.485 -16.5,18.5 -199.667,0.667 -399.333,0.667 -599,0 -8.57,-2.904 -14.07,-8.737 -16.5,-17.5 -0.667,-113.667 -0.667,-227.333 0,-341 1,-1.667 2,-3.333 3,-5 16.424,-16.927 33.258,-33.26 50.5,-49 z"
       id="path7" />
  </g>
  <g
     id="g8"
     style="fill:#333333">
    <path
       style="opacity:1;fill:#333333"
       fill="#241c1c"
       d="m 543.499,655.188 v 101.6 c 0.327,10.295 0.219,26.832 -0.275,29.369 -1.752,9.002 -6.266,12.115 -16.255,14.351 -1.548,0.346 -54.716,0.152 -56.27,-0.12 -8.409,-1.432 -13.609,-6.366 -15.6,-14.8 -0.4,-9.33 -0.534,-18.663 -0.4,-28 v -102.4 h -43.2 c -10.176,-0.171 -16.443,-5.238 -18.8,-15.2 -0.534,-23.2 -0.534,-46.4 0,-69.6 2.8,-7.066 7.733,-12 14.8,-14.8 61.066,-0.534 122.133,-0.534 183.199,0 8.212,2.611 13.413,8.078 15.6,16.4 0.712,22.683 0.446,45.35 -0.799,68 -0.67,8.583 -7.551,14.884 -17.519,14.612 -0.219,0.444 -27.701,0.588 -44.481,0.588 z"
       id="path8" />
  </g>
  <g
     id="g6"
     style="fill:#cccccc">
    <path
       style="opacity:1;fill:#cccccc"
       fill="#e47ffe"
       d="m 625,354.5 c 0.711,8.694 0.544,17.361 -0.5,26 -3.35851,10.1274 -8.28014,17.96745 -18,23 -75.375,0.327 -150.708,-0.006 -226,-1 -11.934,-8.182 -17.6,-19.682 -17,-34.5 -0.33406,-17.59195 4.74481,-29.74082 21,-36 73.333,-0.667 146.667,-0.667 220,0 11.00223,2.86433 17.76509,11.65715 20.5,22.5 z"
       id="path6" />
  </g>
  <g
     id="g3"
     style="fill:#cccccc">
    <path
       style="opacity:1;fill:#cccccc"
       fill="#e47ffe"
       d="m 625,219.5 c 0.711,8.694 0.544,17.361 -0.5,26 -3.35851,10.1274 -8.28014,17.96745 -18,23 -75.375,0.327 -150.708,-0.006 -226,-1 -11.934,-8.182 -17.6,-19.682 -17,-34.5 -0.33406,-17.59195 4.74481,-29.74082 21,-36 73.333,-0.667 146.667,-0.667 220,0 11.00223,2.86433 17.76509,11.65715 20.5,22.5 z"
       id="path3" />
  </g>
  <g
     id="g2"
     style="fill:#cccccc">
    <path
       style="opacity:1;fill:#cccccc"
       fill="#e47ffe"
       d="m 295.5,436.5 h -28 c 0.72561,-95.99331 -1.08119,-192.01239 0.5,-288 5.594,-21.925 19.094,-36.425 40.5,-43.5 120.957,-1.659 241.957,-1.992 363,-1 25.798,5.798 41.631,21.631 47.5,47.5 0.5,94.999 0.667,189.999 0.5,285 h -28 c 0.419,-92.008 -0.081,-184.008 -1.5,-276 -2.772,-13.06 -10.606,-21.227 -23.5,-24.5 -114.667,-0.667 -229.333,-0.667 -344,0 -13.39,3.056 -21.89,11.223 -25.5,24.5 -1.86609,91.96329 -1.79227,184.01055 -1.5,276 z"
       id="path2" />
  </g>
</svg>
