<?xml version="1.0" encoding="UTF-8" standalone="no"?>
<!-- Created with Inkscape (http://www.inkscape.org/) -->
<svg
   xmlns:dc="http://purl.org/dc/elements/1.1/"
   xmlns:cc="http://creativecommons.org/ns#"
   xmlns:rdf="http://www.w3.org/1999/02/22-rdf-syntax-ns#"
   xmlns:svg="http://www.w3.org/2000/svg"
   xmlns="http://www.w3.org/2000/svg"
   xmlns:sodipodi="http://sodipodi.sourceforge.net/DTD/sodipodi-0.dtd"
   xmlns:inkscape="http://www.inkscape.org/namespaces/inkscape"
   width="300"
   height="300"
   id="svg2"
   sodipodi:version="0.32"
   inkscape:version="0.46"
   sodipodi:docname="Jack-in-the-box-huge.svg"
   inkscape:output_extension="org.inkscape.output.svg.inkscape"
   sodipodi:docbase="C:\Dokumente und Einstellungen\Daniel\Desktop"
   version="1.0">
  <sodipodi:namedview
     id="base"
     pagecolor="#ffffff"
     bordercolor="#666666"
     borderopacity="1.0"
     inkscape:pageopacity="0.0"
     inkscape:pageshadow="2"
     inkscape:zoom="2"
     inkscape:cx="193.16591"
     inkscape:cy="144.53033"
     inkscape:document-units="px"
     inkscape:current-layer="layer1"
     showgrid="false"
     inkscape:window-width="1375"
     inkscape:window-height="866"
     inkscape:window-x="58"
     inkscape:window-y="-3" />
  <defs
     id="defs4">
    <inkscape:perspective
       sodipodi:type="inkscape:persp3d"
       inkscape:vp_x="-50 : 600 : 1"
       inkscape:vp_y="0 : 1000 : 0"
       inkscape:vp_z="700 : 600 : 1"
       inkscape:persp3d-origin="300 : 400 : 1"
       id="perspective29" />
    <inkscape:perspective
       sodipodi:type="inkscape:persp3d"
       inkscape:vp_x="-50 : 600 : 1"
       inkscape:vp_y="0 : 1000 : 0"
       inkscape:vp_z="700 : 600 : 1"
       inkscape:persp3d-origin="300 : 400 : 1"
       id="perspective26" />
    <inkscape:perspective
       sodipodi:type="inkscape:persp3d"
       inkscape:vp_x="-50 : 600 : 1"
       inkscape:vp_y="0 : 1000 : 0"
       inkscape:vp_z="700 : 600 : 1"
       inkscape:persp3d-origin="300 : 400 : 1"
       id="perspective82" />
    <inkscape:perspective
       id="perspective10"
       sodipodi:type="inkscape:persp3d"
       inkscape:vp_z="700 : 600 : 1"
       inkscape:vp_y="0 : 1000 : 0"
       inkscape:vp_x="-50 : 600 : 1"
       inkscape:persp3d-origin="300 : 400 : 1" />
    <inkscape:perspective
       inkscape:persp3d-origin="300 : 400 : 1"
       inkscape:vp_x="-50 : 600 : 1"
       inkscape:vp_y="0 : 1000 : 0"
       inkscape:vp_z="700 : 600 : 1"
       sodipodi:type="inkscape:persp3d"
       id="perspective2542" />
    <inkscape:perspective
       id="perspective2540"
       inkscape:persp3d-origin="300 : 400 : 1"
       inkscape:vp_z="700 : 600 : 1"
       inkscape:vp_y="0 : 1000 : 0"
       inkscape:vp_x="-50 : 600 : 1"
       sodipodi:type="inkscape:persp3d" />
    <inkscape:perspective
       id="perspective2538"
       inkscape:persp3d-origin="300 : 400 : 1"
       inkscape:vp_z="700 : 600 : 1"
       inkscape:vp_y="0 : 1000 : 0"
       inkscape:vp_x="-50 : 600 : 1"
       sodipodi:type="inkscape:persp3d" />
    <inkscape:perspective
       id="perspective2536"
       inkscape:persp3d-origin="300 : 400 : 1"
       inkscape:vp_z="700 : 600 : 1"
       inkscape:vp_y="0 : 1000 : 0"
       inkscape:vp_x="-50 : 600 : 1"
       sodipodi:type="inkscape:persp3d" />
    <inkscape:perspective
       inkscape:persp3d-origin="300 : 400 : 1"
       inkscape:vp_x="-50 : 600 : 1"
       inkscape:vp_y="0 : 1000 : 0"
       inkscape:vp_z="700 : 600 : 1"
       sodipodi:type="inkscape:persp3d"
       id="perspective2527" />
    <inkscape:perspective
       id="perspective2525"
       inkscape:persp3d-origin="300 : 400 : 1"
       inkscape:vp_z="700 : 600 : 1"
       inkscape:vp_y="0 : 1000 : 0"
       inkscape:vp_x="-50 : 600 : 1"
       sodipodi:type="inkscape:persp3d" />
    <inkscape:perspective
       id="perspective2523"
       inkscape:persp3d-origin="300 : 400 : 1"
       inkscape:vp_z="700 : 600 : 1"
       inkscape:vp_y="0 : 1000 : 0"
       inkscape:vp_x="-50 : 600 : 1"
       sodipodi:type="inkscape:persp3d" />
    <inkscape:perspective
       id="perspective2521"
       inkscape:persp3d-origin="300 : 400 : 1"
       inkscape:vp_z="700 : 600 : 1"
       inkscape:vp_y="0 : 1000 : 0"
       inkscape:vp_x="-50 : 600 : 1"
       sodipodi:type="inkscape:persp3d" />
  </defs>
  <metadata
     id="metadata7">
    <rdf:RDF>
      <cc:Work
         rdf:about="">
        <dc:format>image/svg+xml</dc:format>
        <dc:type
           rdf:resource="http://purl.org/dc/dcmitype/StillImage" />
        <dc:title />
        <dc:date />
        <dc:creator>
          <cc:Agent>
            <dc:title />
          </cc:Agent>
        </dc:creator>
        <dc:rights>
          <cc:Agent>
            <dc:title />
          </cc:Agent>
        </dc:rights>
        <dc:publisher>
          <cc:Agent>
            <dc:title />
          </cc:Agent>
        </dc:publisher>
        <dc:identifier />
        <dc:source />
        <dc:relation />
        <dc:language />
        <dc:subject>
          <rdf:Bag />
        </dc:subject>
        <dc:coverage />
        <dc:description />
        <dc:contributor>
          <cc:Agent>
            <dc:title />
          </cc:Agent>
        </dc:contributor>
        <cc:license
           rdf:resource="" />
      </cc:Work>
      <cc:Work
         rdf:about="">
        <dc:format>image/svg+xml</dc:format>
        <dc:type
           rdf:resource="http://purl.org/dc/dcmitype/StillImage" />
      </cc:Work>
    </rdf:RDF>
  </metadata>
  <g
     inkscape:label="Ebene 1"
     id="layer1"
     inkscape:groupmode="layer"
     transform="translate(-2.78125,37.2837)">
    <path
       style="fill:#ffffff;fill-opacity:0;fill-rule:evenodd;stroke:#282828;stroke-width:5;stroke-linecap:round;stroke-linejoin:round;marker-start:none;marker-mid:none;marker-end:none;stroke-miterlimit:4;stroke-dasharray:none;stroke-opacity:1"
       d="M 106.22704,174.27695 C 107.19986,173.1114 112.11043,171.44853 115.77298,171.44853 C 119.47059,171.44853 123.59015,170.5354 124.25826,170.03431 C 126.16727,168.60256 127.49013,161.64881 126.73313,160.13482 C 125.63637,157.94129 120.49916,153.62657 117.8943,152.35665 C 115.77175,151.32186 113.80641,150.27401 109.40902,149.17466 C 106.03799,148.33191 103.02244,149.3571 99.509525,150.23533 C 96.893225,150.8894 94.120235,154.30598 95.266885,156.59928 C 96.553365,159.17225 104.90104,160.84193 107.2877,160.84193 C 111.31047,160.84193 113.16957,160.78567 117.18719,159.78127 C 120.73777,158.89362 124.77084,159.62224 127.44024,156.95284 C 129.47528,154.9178 126.20326,148.17369 125.31892,146.69979 C 123.45795,143.59817 121.49637,141.30288 119.30851,138.56806 C 117.38468,136.16327 112.69904,134.20267 110.11612,132.91121 C 106.59526,131.15078 102.48446,130.50958 98.802425,128.66857 C 95.711845,127.12328 89.545295,126.54725 88.195815,126.54725 C 86.040265,126.54725 78.651785,128.21396 77.235665,130.08278 C 76.183055,131.47188 77.686225,136.75038 81.478305,139.27517 C 84.389495,141.21346 89.797755,139.98228 93.499115,139.98228 C 98.278155,139.98228 101.63482,138.91963 105.87348,136.8003 C 107.06987,136.2021 110.46968,128.90333 110.46968,127.96146 C 110.46968,124.0326 111.5128,121.52735 110.46968,117.35485 C 109.84573,114.85906 106.16716,110.57745 104.10573,108.51601 C 100.9973,105.40758 95.356685,105.07028 92.438465,102.15205 C 90.177595,99.891195 84.517955,98.416025 81.478305,97.909415 C 80.771195,97.791565 80.064095,97.673715 79.356985,97.555865 C 75.493635,96.911975 71.315733,97.202315 67.336163,97.202315 C 63.127973,97.202315 58.590503,99.937565 56.022463,102.50561 C 53.568413,104.95965 54.304123,110.02909 55.668903,112.75865 C 56.973063,115.36696 68.092013,117.0013 64.861293,117.0013 C 63.211723,117.0013 75.922865,116.56204 77.942775,115.58708 C 79.905815,114.63956 85.439835,113.07599 88.902925,111.34444 C 92.084895,109.75346 94.445215,107.49026 96.327545,104.98048 C 98.615185,101.9303 98.939115,98.776835 99.863085,95.080995 C 100.86498,91.073435 99.509525,86.968075 99.509525,83.060175 C 99.509525,79.229515 95.035285,72.691328 91.731355,71.03936 C 87.458835,68.903099 86.787435,66.886565 82.185415,65.736059 C 78.031445,64.697569 74.568775,63.614739 70.164593,63.614739 C 66.307493,63.614739 62.351803,63.278493 58.850883,65.028952 C 56.036273,66.436257 53.707593,69.662936 53.547583,72.807127 C 53.387333,75.956063 54.925213,79.692272 58.497333,80.585301 C 61.998403,81.460569 64.363043,82.353068 68.043273,82.353068 C 68.750383,82.353068 74.760785,81.999515 75.467895,81.999515 C 79.447285,81.999515 82.419695,81.03915 85.367395,80.231748 C 90.711815,78.767862 92.973345,76.916047 96.681095,75.989107 C 99.817285,75.205061 101.92522,69.389974 103.39862,66.443166 C 104.88688,63.466647 105.87348,59.816081 105.87348,56.190117 C 105.87348,53.009035 105.18757,48.659011 104.81283,45.583515 C 104.61661,43.973077 103.56077,41.257572 100.21664,37.80534 C 97.559085,35.061872 95.187345,33.100874 91.024245,32.50204 C 87.137455,31.942951 82.527045,32.054765 80.417645,33.916253 C 78.041885,36.012794 76.303595,37.740901 75.821455,40.633768 C 75.339305,43.526636 76.872075,47.694801 79.003425,49.826156 C 81.849695,52.672423 82.722255,53.898529 85.367395,56.543671 C 87.778135,58.954415 90.657305,61.313295 94.206225,62.200525 C 97.403035,62.999729 103.26071,66.443166 106.58059,66.443166 C 109.74478,66.443166 114.30709,67.831541 117.18719,69.271593 C 118.99826,70.177125 121.62138,70.556916 123.55115,71.03936"
       id="path2598"
       sodipodi:nodetypes="csssssssssssssssssssssssssssssssssssssssssssssssssssssssss" />
    <path
       style="fill:#c4a000;fill-opacity:1;stroke:#000000;stroke-width:5.70103979;stroke-linecap:round;stroke-linejoin:round;stroke-miterlimit:4;stroke-dasharray:none;stroke-opacity:1"
       d="M 6.2238941,123.96005 L 50.195625,181.09842 L 46.794633,255.64405 L 129.84164,259.04601 L 129.84164,259.07084 L 129.88989,259.04601 L 130.42053,259.07084 L 130.44465,258.77286 L 146.36418,250.87628 L 154.99934,175.61055 L 136.42656,171.26497 L 83.859487,176.00627 L 49.466214,127.16335 L 6.2238941,123.96005 z"
       id="path3209"
       sodipodi:nodetypes="cccccccccccccc" />
    <path
       style="fill:#c4a000;fill-opacity:1;stroke:#d3d7cf;stroke-width:2.87862372;stroke-linecap:round;stroke-linejoin:round;stroke-miterlimit:4;stroke-dasharray:none;stroke-opacity:1"
       d="M 9.2320519,125.64196 L 48.912593,128.77428 L 83.936286,179.27639 L 53.248124,183.11974 L 9.2320519,125.64196 z"
       id="rect2460"
       sodipodi:nodetypes="ccccc" />
    <path
       style="fill:#888a85;fill-opacity:1;stroke:#2e3436;stroke-width:4.383;stroke-linecap:round;stroke-linejoin:round;stroke-miterlimit:4;stroke-dasharray:none;stroke-opacity:1"
       d="M 166.40158,-34.020358 C 165.93055,-34.012508 165.43724,-33.955174 164.94976,-33.891132 C 151.41807,-31.098415 154.42393,-15.166986 162.04611,-8.3697813 C 168.67222,-1.2218302 175.22817,6.1840609 182.08126,13.210307 C 148.86275,22.074982 124.5891,49.516536 124.5891,81.956441 C 124.5891,121.5616 160.74106,153.67468 205.23783,153.67468 C 249.73459,153.67468 285.81393,121.5616 285.81395,81.956441 C 285.81395,44.627312 253.73244,13.901925 212.78729,10.496644 C 213.56571,8.6607609 214.28869,6.9048917 214.89244,5.4569849 C 221.02573,-3.1907108 217.21959,-24.47864 205.38301,-12.698711 C 202.30011,-9.1200073 202.7042,-24.173782 199.93866,-27.494634 C 196.41841,-35.686072 185.70329,-33.465565 187.96114,-16.510765 C 189.34095,-6.9398003 186.13198,-17.92236 182.44422,-23.488754 C 178.68155,-28.156834 173.46728,-34.138 166.40158,-34.020358 z"
       id="path3266"
       sodipodi:nodetypes="ccccsssccccccc" />
    <path
       style="fill:#edd400;fill-opacity:1;stroke:#d3d7cf;stroke-width:2.87862372;stroke-linecap:round;stroke-linejoin:round;stroke-miterlimit:4;stroke-dasharray:none;stroke-opacity:1"
       d="M 135.64047,171.7787 L 51.946434,180.66776 L 48.621155,254.08126 L 129.2475,257.39952 L 129.2475,257.42374 L 129.29434,257.39952 L 129.80952,257.42374 L 129.83294,257.13309 L 135.64047,171.7787 z"
       id="path3277"
       sodipodi:nodetypes="ccccccccc" />
    <path
       style="fill:#555753;fill-opacity:1;stroke:none;stroke-width:8;stroke-linecap:round;stroke-linejoin:round;stroke-miterlimit:4;stroke-opacity:1"
       d="M 166.54675,-29.885253 C 164.88743,-29.881791 163.30602,-29.19202 161.82834,-27.62386 C 152.37124,-17.587642 182.48749,5.1324407 190.06628,15.019416 C 190.56273,15.667056 191.11278,16.260569 191.59069,16.828526 C 157.01793,22.535467 130.83193,49.539443 130.83193,81.956441 C 130.83193,118.5195 164.15887,148.18274 205.23783,148.18274 C 246.31677,148.18274 279.64371,118.5195 279.64371,81.956441 C 279.64371,45.393381 246.31677,15.665528 205.23783,15.665528 C 205.16525,15.665528 205.09257,15.66534 205.02005,15.665528 C 207.45826,11.747369 210.14705,5.5803138 213.36804,-3.4593302 C 214.59067,-8.9975404 211.3021,-13.129976 209.08515,-10.243494 C 205.45492,-4.8912593 203.39788,-0.45509872 201.46309,5.5215962 C 201.89457,2.5388964 202.11784,-0.50493834 201.82604,-3.5239436 C 201.10507,-10.31514 199.37277,-17.014314 196.74466,-23.424142 C 195.90249,-24.762865 195.56326,-27.7608 193.40548,-27.430034 C 192.05079,-25.543742 191.97338,-23.099944 191.95365,-20.90431 C 192.53799,-13.247713 192.09419,-5.5492888 191.51811,2.0972108 C 191.09681,1.0030117 190.64956,-0.10981741 190.21146,-1.1979531 C 186.30908,-9.9880126 175.50717,-29.903978 166.54675,-29.885253 z"
       id="path3407"
       sodipodi:nodetypes="csscssssccccccccccc" />
    <path
       style="fill:#babdb6;fill-opacity:1;stroke:#2e3436;stroke-width:8;stroke-linecap:round;stroke-linejoin:round;stroke-miterlimit:4;stroke-dasharray:none;stroke-opacity:1"
       id="path3409"
       sodipodi:cx="390.42395"
       sodipodi:cy="248.78583"
       sodipodi:type="arc"
       d="M 491.94428,248.78583 A 101.52033,101.52033 0 1 1 288.90362,248.78583 A 101.52033,101.52033 0 1 1 491.94428,248.78583 z"
       transform="matrix(0.3715108,0,0,0.33067,14.218098,-11.880166)"
       sodipodi:rx="101.52033"
       sodipodi:ry="101.52033" />
    <path
       style="fill:#babdb6;fill-opacity:1;stroke:#2e3436;stroke-width:8;stroke-linecap:round;stroke-linejoin:round;stroke-miterlimit:4;stroke-dasharray:none;stroke-opacity:1"
       id="path3411"
       sodipodi:cx="390.42395"
       sodipodi:cy="248.78583"
       sodipodi:type="arc"
       d="M 491.94428,248.78583 A 101.52033,101.52033 0 1 1 288.90362,248.78583 A 101.52033,101.52033 0 1 1 491.94428,248.78583 z"
       transform="matrix(0.5263053,0,0,0.4684475,40.999918,-54.550117)"
       sodipodi:rx="101.52033"
       sodipodi:ry="101.52033" />
    <path
       style="fill:#ffffff;fill-opacity:1;stroke:none;stroke-width:8;stroke-linecap:round;stroke-linejoin:round;stroke-miterlimit:4;stroke-dasharray:none;stroke-opacity:1"
       d="M 158.51113,41.611724 C 138.39755,41.319497 121.85685,61.016532 128.05344,78.154232 C 132.77986,94.37098 155.25809,104.22014 172.39084,96.739216 C 187.55463,90.785305 196.15484,73.613142 189.3577,59.785616 C 184.49875,48.987428 171.76159,41.068578 158.51113,41.611724 z"
       id="path3413" />
    <path
       style="fill:#ffffff;fill-opacity:1;stroke:none;stroke-width:8;stroke-linecap:round;stroke-linejoin:round;stroke-miterlimit:4;stroke-dasharray:none;stroke-opacity:1"
       d="M 244.92751,20.02581 C 217.81325,20.047435 194.60962,44.603534 199.81066,68.527829 C 203.13832,88.75627 224.91334,105.33685 248.0979,104.03007 C 270.70053,103.55867 291.70833,86.742392 293.4857,66.405424 C 295.89276,46.353758 280.62936,25.863689 258.34062,21.352332 C 253.95972,20.291366 249.47007,19.910502 244.92751,20.02581 z"
       id="path3423" />
    <path
       sodipodi:type="arc"
       style="fill:#729fcf;fill-opacity:1;stroke:none;stroke-width:2;stroke-linecap:round;stroke-linejoin:round;stroke-miterlimit:4;stroke-dasharray:none;stroke-opacity:1"
       id="path2408"
       sodipodi:cx="151.32085"
       sodipodi:cy="125.16842"
       sodipodi:rx="6.7175145"
       sodipodi:ry="6.7175145"
       d="M 158.03836,125.16842 A 6.7175145,6.7175145 0 1 1 144.60333,125.16842 A 6.7175145,6.7175145 0 1 1 158.03836,125.16842 z"
       transform="matrix(2.5063097,0,0,2.2307862,-132.42971,-214.44347)" />
    <path
       style="fill:#ffffff;fill-rule:evenodd;stroke:none;stroke-width:1px;stroke-linecap:butt;stroke-linejoin:miter;stroke-opacity:1"
       d="M 156.42811,112.97315 L 245.72905,112.1642 C 245.72905,112.1642 248.22365,129.17174 236.60088,133.49054 C 223.70049,138.28411 155.96297,113.78209 156.42811,112.97315 z"
       id="path3365"
       sodipodi:nodetypes="ccsc" />
    <path
       style="fill:none;fill-rule:evenodd;stroke:#b3b3b3;stroke-width:2.19151783px;stroke-linecap:butt;stroke-linejoin:miter;stroke-opacity:1"
       d="M 158.75367,113.78209 C 158.75367,113.78209 239.28458,134.55664 245.61346,119.70326"
       id="path3367"
       sodipodi:nodetypes="cc" />
    <path
       style="fill:#2e3436;fill-opacity:1;stroke:none;stroke-width:8;stroke-linecap:round;stroke-linejoin:round;stroke-miterlimit:4;stroke-dasharray:none;stroke-opacity:1"
       d="M 246.4279,54.872509 C 237.29983,54.829112 231.64912,66.633352 238.6102,72.161676 C 244.08898,77.331159 255.70778,75.513388 257.74224,68.327525 C 260.15606,61.840701 254.35373,54.284085 246.4279,54.872509 z"
       id="path3471" />
    <path
       id="path3260"
       d="M 244.26892,59.237465 C 241.06389,59.222228 239.07982,63.366926 241.524,65.308008 C 243.44769,67.123113 247.52727,66.484859 248.2416,63.961783 C 249.08912,61.684126 247.05184,59.030875 244.26892,59.237465 z"
       style="fill:#d3d7cf;fill-opacity:1;stroke:none;stroke-width:8;stroke-linecap:round;stroke-linejoin:round;stroke-miterlimit:4;stroke-dasharray:none;stroke-opacity:1" />
    <path
       style="fill:#c4a000;fill-opacity:1;stroke:#babdb6;stroke-width:2.87862372;stroke-linecap:round;stroke-linejoin:round;stroke-miterlimit:4;stroke-dasharray:none;stroke-opacity:1"
       d="M 153.6615,176.0166 L 135.64006,171.76857 L 129.25667,257.41633 L 145.2994,249.42894 L 153.6615,176.0166 z"
       sodipodi:nodetypes="ccccc"
       id="path3284" />
    <path
       transform="matrix(1.7421867,0,0,1.5506646,-105.29524,-122.18722)"
       d="M 158.03836,125.16842 A 6.7175145,6.7175145 0 1 1 144.60333,125.16842 A 6.7175145,6.7175145 0 1 1 158.03836,125.16842 z"
       sodipodi:ry="6.7175145"
       sodipodi:rx="6.7175145"
       sodipodi:cy="125.16842"
       sodipodi:cx="151.32085"
       id="path2411"
       style="fill:#729fcf;fill-opacity:1;stroke:none;stroke-width:2;stroke-linecap:round;stroke-linejoin:round;stroke-miterlimit:4;stroke-dasharray:none;stroke-opacity:1"
       sodipodi:type="arc" />
    <path
       id="path2413"
       d="M 158.05702,65.020203 C 151.71189,64.990039 147.78394,73.195434 152.62276,77.03829 C 156.43117,80.631697 164.50766,79.368134 165.92185,74.373092 C 167.59976,69.863944 163.56644,64.61118 158.05702,65.020203 z"
       style="fill:#2e3436;fill-opacity:1;stroke:none;stroke-width:8;stroke-linecap:round;stroke-linejoin:round;stroke-miterlimit:4;stroke-dasharray:none;stroke-opacity:1" />
    <path
       style="fill:#d3d7cf;fill-opacity:1;stroke:none;stroke-width:8;stroke-linecap:round;stroke-linejoin:round;stroke-miterlimit:4;stroke-dasharray:none;stroke-opacity:1"
       d="M 156.55627,68.054381 C 154.32836,68.043793 152.9492,70.924866 154.64821,72.274152 C 155.98542,73.535877 158.8212,73.0922 159.31775,71.338357 C 159.90689,69.755107 158.49073,67.910766 156.55627,68.054381 z"
       id="path2415" />
    <path
       sodipodi:nodetypes="ccsc"
       id="path3216"
       d="M 156.42811,112.97315 L 245.72905,112.1642 C 245.72905,112.1642 248.22365,129.17174 236.60088,133.49054 C 223.70049,138.28411 155.96297,113.78209 156.42811,112.97315 z"
       style="fill:none;fill-rule:evenodd;stroke:#333333;stroke-width:2.19151783px;stroke-linecap:butt;stroke-linejoin:miter;stroke-opacity:1" />
    <text
       xml:space="preserve"
       style="font-size:12px;font-style:normal;font-variant:normal;font-weight:normal;font-stretch:normal;fill:#000000;fill-opacity:1;stroke:none;stroke-width:1px;stroke-linecap:butt;stroke-linejoin:miter;stroke-opacity:1;font-family:Aksharyogini;-inkscape-font-specification:Aksharyogini"
       x="581.14374"
       y="161.7153"
       id="text2407"><tspan
         sodipodi:role="line"
         id="tspan2409"
         x="581.14374"
         y="161.7153" /></text>
    <text
       xml:space="preserve"
       style="font-size:94.77973175px;font-style:normal;font-variant:normal;font-weight:normal;font-stretch:normal;text-align:start;line-height:125%;writing-mode:lr-tb;text-anchor:start;fill:#000080;fill-opacity:1;stroke:none;stroke-width:1px;stroke-linecap:butt;stroke-linejoin:miter;stroke-opacity:1;font-family:Domestic Manners;-inkscape-font-specification:Domestic Manners"
       x="54.250069"
       y="267.5936"
       id="text2403"
       sodipodi:linespacing="125%"
       transform="scale(1.0965531,0.9119485)"><tspan
         sodipodi:role="line"
         id="tspan2405"
         x="54.250069"
         y="267.5936">T</tspan></text>
    <text
       xml:space="preserve"
       style="font-size:12px;font-style:normal;font-variant:normal;font-weight:normal;font-stretch:normal;fill:#000000;fill-opacity:1;stroke:none;stroke-width:1px;stroke-linecap:butt;stroke-linejoin:miter;stroke-opacity:1;font-family:Aksharyogini;-inkscape-font-specification:Aksharyogini"
       x="601.29626"
       y="316.59369"
       id="text2561"><tspan
         sodipodi:role="line"
         id="tspan2563"
         x="601.29626"
         y="316.59369" /></text>
  </g>
</svg>
